#!OML:ASF E:\Style6\Style6.ASF
:FULLY-SPECIFIED
:DEGREES
1650
root 1.77962 18.0934 -0.229994 13.237 -2.95425 9.55578
lowerback 4.74187 -3.50867 10.7034
upperback -2.92522 -3.1986 13.5962
thorax -5.65312 -1.69649 9.01927
lowerneck -14.0823 -0.642016 3.00121
upperneck 24.2058 0.970598 -10.701
head 10.0868 -0.52667 -4.19175
rclavicle 1.59028e-015 -3.81667e-014
rhumerus 25.582 -51.2243 -15.2192
rradius 52.4673
rwrist 24.2396
rhand 16.1084 -0.900275
rfingers 7.12502
rthumb 40.894 -25.8503
lclavicle 1.59028e-015 -3.81667e-014
lhumerus -114.273 -54.7655 169.946
lradius 79.8656
lwrist 34.2191
lhand -11.8961 9.58642
lfingers 7.12502
lthumb 14.1571 39.0841
rfemur -26.8317 16.2348 -2.5222
rtibia 25.1234
rfoot -14.5238 -18.6006
rtoes 1.74884
lfemur -14.9656 -5.81218 -32.0226
ltibia 6.27054
lfoot 1.57359 4.50829
ltoes -9.16
1651
root 1.78247 18.0919 -0.232695 13.1791 -3.02843 9.54321
lowerback 4.71359 -3.51513 10.7875
upperback -2.83884 -3.22381 13.5584
thorax -5.54751 -1.71197 8.91981
lowerneck -14.1355 -0.632418 3.02926
upperneck 24.1941 0.962695 -10.6461
head 10.0919 -0.52249 -4.17814
rclavicle -5.56597e-014 6.99722e-014
rhumerus 25.7448 -51.2977 -15.2783
rradius 52.5983
rwrist 24.0513
rhand 16.0788 -0.956809
rfingers 7.12502
rthumb 40.8661 -25.9156
lclavicle -5.56597e-014 6.99722e-014
lhumerus -114.319 -54.9074 169.934
lradius 79.846
lwrist 34.1455
lhand -11.7934 9.65147
lfingers 7.12502
lthumb 14.2561 39.1422
rfemur -26.8068 16.1734 -2.49143
rtibia 25.1033
rfoot -14.3668 -18.5687
rtoes 1.41876
lfemur -15.0413 -5.64678 -32.0551
ltibia 6.52365
lfoot 1.45189 4.35665
ltoes -9.74963
1652
root 1.78326 18.0911 -0.235834 13.1789 -3.1572 9.58744
lowerback 4.65791 -3.4938 10.7474
upperback -2.78884 -3.22076 13.5368
thorax -5.45894 -1.70939 8.90605
lowerneck -14.1182 -0.641896 3.03039
upperneck 24.1813 0.943296 -10.6286
head 10.0821 -0.528769 -4.17352
rclavicle -2.38542e-014 3.18055e-014
rhumerus 25.8232 -51.3252 -15.2017
rradius 52.7746
rwrist 23.9262
rhand 16.2465 -0.998702
rfingers 7.12502
rthumb 41.0237 -25.9076
lclavicle -2.38542e-014 3.18055e-014
lhumerus -114.316 -55.0367 169.92
lradius 79.8262
lwrist 34.093
lhand -11.4844 9.74067
lfingers 7.12502
lthumb 14.5538 39.2101
rfemur -26.8672 16.1831 -2.57086
rtibia 25.0647
rfoot -14.2126 -18.6206
rtoes 1.07728
lfemur -15.2501 -5.45461 -32.1481
ltibia 6.87634
lfoot 1.19815 4.32688
ltoes -9.09481
1653
root 1.78549 18.0923 -0.240447 13.206 -3.28727 9.39598
lowerback 4.67027 -3.47005 10.9398
upperback -2.76154 -3.17608 13.5818
thorax -5.44984 -1.69324 8.8465
lowerneck -14.0972 -0.628958 3.00128
upperneck 24.204 0.965594 -10.6102
head 10.0881 -0.519058 -4.15965
rclavicle -1.11319e-014 -6.67916e-014
rhumerus 26.0035 -51.3668 -15.3007
rradius 52.9835
rwrist 23.8731
rhand 16.25 -1.06451
rfingers 7.12502
rthumb 41.0269 -25.9723
lclavicle -1.11319e-014 -6.67916e-014
lhumerus -114.269 -55.0815 169.87
lradius 79.8262
lwrist 33.9429
lhand -11.354 9.74759
lfingers 7.12502
lthumb 14.6795 39.2079
rfemur -26.972 16.1795 -2.39068
rtibia 25.0292
rfoot -13.922 -18.6291
rtoes -0.0301767
lfemur -15.4787 -5.21019 -32.0046
ltibia 7.19929
lfoot 0.953729 4.33652
ltoes -8.38202
1654
root 1.78891 18.0907 -0.246382 13.2439 -3.4607 9.26072
lowerback 4.72517 -3.42321 11.0821
upperback -2.74224 -3.09518 13.6086
thorax -5.47396 -1.65807 8.79477
lowerneck -14.1277 -0.622763 2.9882
upperneck 24.2156 0.980752 -10.6198
head 10.0996 -0.5154 -4.16006
rclavicle -3.97569e-014 1.68569e-013
rhumerus 26.3173 -51.5659 -15.5824
rradius 53.1657
rwrist 23.9236
rhand 16.3049 -1.00025
rfingers 7.12502
rthumb 41.0785 -25.8916
lclavicle -3.97569e-014 1.68569e-013
lhumerus -114.274 -55.1386 169.884
lradius 79.826
lwrist 33.7346
lhand -11.3499 9.69994
lfingers 7.12502
lthumb 14.6834 39.16
rfemur -27.1203 16.1168 -2.27853
rtibia 25.0222
rfoot -13.5925 -18.5572
rtoes -1.04494
lfemur -15.6736 -4.94347 -31.9379
ltibia 7.43796
lfoot 0.842631 4.27708
ltoes -8.34712
